<mxfile host="app.diagrams.net" agent="Mozilla/5.0 (Windows NT 10.0; Win64; x64) AppleWebKit/537.36 (KHTML, like Gecko) Chrome/131.0.0.0 Safari/537.36" version="26.0.8">
  <diagram name="Page-1" id="BGnttEFfwmCl8xhvsEjg">
    <mxGraphModel dx="1050" dy="557" grid="1" gridSize="10" guides="1" tooltips="1" connect="1" arrows="1" fold="1" page="1" pageScale="1" pageWidth="827" pageHeight="1169" math="0" shadow="0">
      <root>
        <mxCell id="0" />
        <mxCell id="1" parent="0" />
        <mxCell id="AsXzfVtSdMkKYrKMMYJv-26" value="" style="edgeStyle=orthogonalEdgeStyle;rounded=0;orthogonalLoop=1;jettySize=auto;html=1;" edge="1" parent="1" source="AsXzfVtSdMkKYrKMMYJv-1" target="AsXzfVtSdMkKYrKMMYJv-3">
          <mxGeometry relative="1" as="geometry" />
        </mxCell>
        <mxCell id="AsXzfVtSdMkKYrKMMYJv-1" value="INICIO" style="strokeWidth=2;html=1;shape=mxgraph.flowchart.start_1;whiteSpace=wrap;" vertex="1" parent="1">
          <mxGeometry x="364" y="30" width="100" height="60" as="geometry" />
        </mxCell>
        <mxCell id="AsXzfVtSdMkKYrKMMYJv-2" value="FIM" style="strokeWidth=2;html=1;shape=mxgraph.flowchart.start_1;whiteSpace=wrap;" vertex="1" parent="1">
          <mxGeometry x="364" y="790" width="100" height="60" as="geometry" />
        </mxCell>
        <mxCell id="AsXzfVtSdMkKYrKMMYJv-27" value="" style="edgeStyle=orthogonalEdgeStyle;rounded=0;orthogonalLoop=1;jettySize=auto;html=1;" edge="1" parent="1" source="AsXzfVtSdMkKYrKMMYJv-3" target="AsXzfVtSdMkKYrKMMYJv-4">
          <mxGeometry relative="1" as="geometry" />
        </mxCell>
        <mxCell id="AsXzfVtSdMkKYrKMMYJv-3" value="PESO" style="shape=parallelogram;html=1;strokeWidth=2;perimeter=parallelogramPerimeter;whiteSpace=wrap;rounded=1;arcSize=12;size=0.23;" vertex="1" parent="1">
          <mxGeometry x="364" y="120" width="100" height="60" as="geometry" />
        </mxCell>
        <mxCell id="AsXzfVtSdMkKYrKMMYJv-28" value="" style="edgeStyle=orthogonalEdgeStyle;rounded=0;orthogonalLoop=1;jettySize=auto;html=1;" edge="1" parent="1" source="AsXzfVtSdMkKYrKMMYJv-4" target="AsXzfVtSdMkKYrKMMYJv-6">
          <mxGeometry relative="1" as="geometry" />
        </mxCell>
        <mxCell id="AsXzfVtSdMkKYrKMMYJv-4" value="ALTURA" style="shape=parallelogram;html=1;strokeWidth=2;perimeter=parallelogramPerimeter;whiteSpace=wrap;rounded=1;arcSize=12;size=0.23;" vertex="1" parent="1">
          <mxGeometry x="364" y="220" width="100" height="60" as="geometry" />
        </mxCell>
        <mxCell id="AsXzfVtSdMkKYrKMMYJv-30" value="" style="edgeStyle=orthogonalEdgeStyle;rounded=0;orthogonalLoop=1;jettySize=auto;html=1;" edge="1" parent="1" source="AsXzfVtSdMkKYrKMMYJv-5" target="AsXzfVtSdMkKYrKMMYJv-7">
          <mxGeometry relative="1" as="geometry" />
        </mxCell>
        <mxCell id="AsXzfVtSdMkKYrKMMYJv-5" value="VALOR DO IMC" style="strokeWidth=2;html=1;shape=mxgraph.flowchart.display;whiteSpace=wrap;" vertex="1" parent="1">
          <mxGeometry x="364" y="390" width="100" height="60" as="geometry" />
        </mxCell>
        <mxCell id="AsXzfVtSdMkKYrKMMYJv-29" value="" style="edgeStyle=orthogonalEdgeStyle;rounded=0;orthogonalLoop=1;jettySize=auto;html=1;" edge="1" parent="1" source="AsXzfVtSdMkKYrKMMYJv-6" target="AsXzfVtSdMkKYrKMMYJv-5">
          <mxGeometry relative="1" as="geometry" />
        </mxCell>
        <mxCell id="AsXzfVtSdMkKYrKMMYJv-6" value="IMC = PESO / (ALTURA * ALTURA)" style="rounded=1;whiteSpace=wrap;html=1;absoluteArcSize=1;arcSize=14;strokeWidth=2;" vertex="1" parent="1">
          <mxGeometry x="309" y="310" width="209" height="40" as="geometry" />
        </mxCell>
        <mxCell id="AsXzfVtSdMkKYrKMMYJv-7" value="IMC &amp;gt;= 25" style="strokeWidth=2;html=1;shape=mxgraph.flowchart.decision;whiteSpace=wrap;" vertex="1" parent="1">
          <mxGeometry x="357" y="490" width="114" height="110" as="geometry" />
        </mxCell>
        <mxCell id="AsXzfVtSdMkKYrKMMYJv-39" style="edgeStyle=orthogonalEdgeStyle;rounded=0;orthogonalLoop=1;jettySize=auto;html=1;exitX=0.5;exitY=1;exitDx=0;exitDy=0;exitPerimeter=0;entryX=1;entryY=0.5;entryDx=0;entryDy=0;" edge="1" parent="1" source="AsXzfVtSdMkKYrKMMYJv-16" target="AsXzfVtSdMkKYrKMMYJv-23">
          <mxGeometry relative="1" as="geometry" />
        </mxCell>
        <mxCell id="AsXzfVtSdMkKYrKMMYJv-16" value="INDICE GORDURA&lt;div&gt;ACIMA&lt;/div&gt;" style="strokeWidth=2;html=1;shape=mxgraph.flowchart.display;whiteSpace=wrap;" vertex="1" parent="1">
          <mxGeometry x="510" y="600" width="100" height="60" as="geometry" />
        </mxCell>
        <mxCell id="AsXzfVtSdMkKYrKMMYJv-38" style="edgeStyle=orthogonalEdgeStyle;rounded=0;orthogonalLoop=1;jettySize=auto;html=1;entryX=0;entryY=0.5;entryDx=0;entryDy=0;" edge="1" parent="1" source="AsXzfVtSdMkKYrKMMYJv-18" target="AsXzfVtSdMkKYrKMMYJv-23">
          <mxGeometry relative="1" as="geometry">
            <Array as="points">
              <mxPoint x="250" y="715" />
            </Array>
          </mxGeometry>
        </mxCell>
        <mxCell id="AsXzfVtSdMkKYrKMMYJv-18" value="INDICE GORDURA NORMAL" style="strokeWidth=2;html=1;shape=mxgraph.flowchart.display;whiteSpace=wrap;" vertex="1" parent="1">
          <mxGeometry x="200" y="600" width="100" height="60" as="geometry" />
        </mxCell>
        <mxCell id="AsXzfVtSdMkKYrKMMYJv-31" value="" style="edgeStyle=orthogonalEdgeStyle;rounded=0;orthogonalLoop=1;jettySize=auto;html=1;" edge="1" parent="1" source="AsXzfVtSdMkKYrKMMYJv-23" target="AsXzfVtSdMkKYrKMMYJv-2">
          <mxGeometry relative="1" as="geometry" />
        </mxCell>
        <mxCell id="AsXzfVtSdMkKYrKMMYJv-23" value="" style="rounded=1;whiteSpace=wrap;html=1;absoluteArcSize=1;arcSize=14;strokeWidth=2;" vertex="1" parent="1">
          <mxGeometry x="397" y="700" width="34" height="30" as="geometry" />
        </mxCell>
        <mxCell id="AsXzfVtSdMkKYrKMMYJv-34" style="edgeStyle=orthogonalEdgeStyle;rounded=0;orthogonalLoop=1;jettySize=auto;html=1;entryX=0.5;entryY=0;entryDx=0;entryDy=0;entryPerimeter=0;" edge="1" parent="1" source="AsXzfVtSdMkKYrKMMYJv-7" target="AsXzfVtSdMkKYrKMMYJv-18">
          <mxGeometry relative="1" as="geometry" />
        </mxCell>
        <mxCell id="AsXzfVtSdMkKYrKMMYJv-35" value="F" style="edgeLabel;html=1;align=center;verticalAlign=middle;resizable=0;points=[];" vertex="1" connectable="0" parent="AsXzfVtSdMkKYrKMMYJv-34">
          <mxGeometry x="-0.3802" y="1" relative="1" as="geometry">
            <mxPoint as="offset" />
          </mxGeometry>
        </mxCell>
        <mxCell id="AsXzfVtSdMkKYrKMMYJv-36" style="edgeStyle=orthogonalEdgeStyle;rounded=0;orthogonalLoop=1;jettySize=auto;html=1;entryX=0.5;entryY=0;entryDx=0;entryDy=0;entryPerimeter=0;" edge="1" parent="1" source="AsXzfVtSdMkKYrKMMYJv-7" target="AsXzfVtSdMkKYrKMMYJv-16">
          <mxGeometry relative="1" as="geometry" />
        </mxCell>
        <mxCell id="AsXzfVtSdMkKYrKMMYJv-37" value="V" style="edgeLabel;html=1;align=center;verticalAlign=middle;resizable=0;points=[];" vertex="1" connectable="0" parent="AsXzfVtSdMkKYrKMMYJv-36">
          <mxGeometry x="-0.2806" y="-1" relative="1" as="geometry">
            <mxPoint as="offset" />
          </mxGeometry>
        </mxCell>
      </root>
    </mxGraphModel>
  </diagram>
</mxfile>
